<?xml version="1.0" encoding="UTF-8" standalone="no"?>
<!DOCTYPE svg PUBLIC "-//W3C//DTD SVG 1.1//EN" "http://www.w3.org/Graphics/SVG/1.1/DTD/svg11.dtd">
<svg width="100%" height="100%" viewBox="0 0 2500 2500" version="1.1" xmlns="http://www.w3.org/2000/svg" xmlns:xlink="http://www.w3.org/1999/xlink" xml:space="preserve" xmlns:serif="http://www.serif.com/" style="fill-rule:evenodd;clip-rule:evenodd;stroke-linejoin:round;stroke-miterlimit:2;">
    <g>
        <rect x="0" y="0" width="2500" height="2500" style="fill:white;"/>
        <path d="M1024.31,220.33C994.288,230.343 976.844,198.178 964.185,198.178C951.514,198.178 881.905,182.355 837.587,223.495C793.283,264.635 796.46,255.141 783.802,270.964C771.143,286.787 780.637,308.94 767.979,343.751C755.32,378.561 720.509,445.019 752.156,505.146C783.802,565.274 790.131,568.439 796.46,581.097C802.79,593.756 796.46,581.097 805.954,615.908C815.448,650.719 815.448,663.378 824.942,676.036C834.436,688.695 834.436,688.695 821.777,723.505C809.119,758.316 783.802,824.773 783.802,834.267C783.802,843.761 774.308,796.292 755.32,767.81C736.332,739.328 688.863,679.201 584.431,726.67C479.998,774.139 483.163,767.81 429.351,777.304C375.565,786.798 312.273,840.596 318.589,916.547C324.906,992.498 328.083,1058.95 343.906,1077.94C359.729,1096.93 375.553,1131.74 375.553,1182.38C375.553,1233 442.01,1365.91 473.656,1403.89C505.302,1441.88 498.973,1441.86 524.29,1457.68C549.607,1473.51 540.113,1476.69 565.43,1524.14C590.747,1571.6 680.874,1686.1 734.672,1717.74C788.471,1749.39 808.224,1762.23 808.224,1762.23C808.224,1762.23 830.973,1769.92 837.302,1801.57C843.631,1833.21 885.057,1843.77 904.044,1846.93C923.032,1850.1 935.691,1850.1 938.855,1862.77C942.02,1875.41 961.008,1884.91 983.16,1888.07C1005.31,1891.24 1008.48,1913.38 1014.81,1922.88C1021.14,1932.38 1084.43,1992.51 1122.4,2008.34C1160.38,2024.16 1160.38,2030.5 1173.04,2043.15C1185.7,2055.81 1192.03,2043.15 1204.68,2058.98C1217.34,2074.8 1220.51,2062.14 1242.66,2096.95C1264.81,2131.76 1315.46,2185.56 1347.09,2201.38C1378.73,2217.22 1473.68,2229.87 1495.82,2283.68C1517.98,2337.46 1571.78,2400.76 1628.73,2388.11C1685.71,2375.44 1669.87,2359.63 1676.2,2350.12C1682.53,2340.64 1698.37,2337.46 1714.17,2337.46C1730.01,2337.46 1812.84,2377.86 1825.51,2352.56C1838.15,2327.24 1812.28,2274.17 1847.09,2271.01C1881.9,2267.84 1951.54,2229.87 1976.84,2185.56C2002.17,2141.26 2005.31,2068.47 1942.03,1989.35C1878.72,1910.24 1891.39,1799.48 1891.39,1767.83C1891.39,1736.2 1897.72,1676.07 1818.62,1638.09C1739.51,1600.11 1657.21,1549.49 1625.57,1539.99C1593.93,1530.51 1540.12,1505.18 1574.96,1400.76C1609.77,1296.33 1578.1,1381.76 1587.6,1359.61C1597.11,1337.45 1597.1,1308.99 1609.77,1280.49C1622.41,1252.01 1631.91,1233.02 1654.07,1226.71C1676.21,1220.38 1682.54,1195.06 1685.71,1166.58C1688.87,1138.1 1679.38,1115.94 1688.87,1109.62C1698.37,1103.29 1711.01,1100.12 1711.01,1058.98C1711.01,1017.84 1739.51,1021.01 1761.64,998.853C1783.81,976.701 1862.92,910.244 1796.45,799.482C1796.45,799.482 1771.15,777.33 1758.48,710.873C1745.81,644.403 1695.2,581.123 1663.54,577.959C1631.91,574.794 1609.74,514.666 1603.43,495.678C1597.1,476.691 1568.62,356.435 1473.68,299.485C1378.74,242.509 1442.02,343.79 1356.57,217.205C1271.13,90.62 1160.39,103.278 1122.4,122.266C1084.41,141.254 1052.8,210.849 1024.31,220.33Z" style="fill:white;"/>
        <path d="M736.812,1098.18C736.812,1098.18 802.971,1032.02 825.033,1026.51C847.094,1020.99 827.782,996.182 860.881,954.834C860.881,954.834 858.119,808.717 913.253,701.21L910.503,679.149C910.503,679.149 877.418,593.691 871.905,552.343C871.905,552.343 780.935,508.233 814.021,417.25C814.021,417.25 822.296,386.927 819.534,345.579C816.771,304.232 893.967,257.359 902.229,257.359C910.49,257.359 982.174,227.036 1020.77,329.043C1059.37,431.037 1031.8,386.927 1031.8,386.927C1031.8,386.927 1051.1,417.25 1070.39,444.824C1089.69,472.385 1111.74,513.745 1114.51,571.629C1117.25,629.526 1136.55,692.936 1142.07,706.722C1147.58,720.509 1147.58,684.661 1155.84,657.1C1164.11,629.526 1208.22,533.044 1208.22,533.044C1208.22,533.044 1161.35,472.398 1166.88,453.099C1172.39,433.8 1086.93,477.91 1059.36,362.116C1059.36,362.116 1095.21,298.707 1103.47,260.122C1111.74,221.524 1147.58,160.877 1202.71,166.389C1257.85,171.901 1277.13,202.225 1293.68,232.548C1310.22,262.871 1312.98,287.682 1365.37,351.105C1365.37,351.105 1467.37,329.043 1497.7,414.514C1528.02,499.971 1514.23,480.672 1547.32,519.27C1580.4,557.868 1602.44,607.491 1599.68,632.302C1596.94,657.113 1693.44,585.429 1712.74,734.296C1732.01,883.176 1726.51,808.73 1743.06,833.541C1759.61,858.352 1778.88,896.95 1726.52,941.06C1674.14,985.17 1690.67,974.146 1674.14,1012.73C1657.6,1051.32 1654.84,1067.87 1632.78,1081.65C1610.74,1095.43 1619,1111.98 1624.52,1128.51C1630.03,1145.05 1624.52,1169.86 1602.45,1178.13C1580.42,1186.4 1563.87,1194.67 1569.37,1230.52C1574.89,1266.36 1583.14,1293.93 1541.81,1321.5C1500.46,1349.06 1528.03,1351.83 1519.75,1395.94C1511.48,1440.03 1494.95,1445.55 1492.18,1486.91C1489.42,1528.27 1489.42,1544.8 1547.33,1577.89C1605.22,1610.97 1641.06,1588.93 1751.33,1666.11C1861.6,1743.31 1831.28,1737.78 1831.28,1737.78C1831.28,1737.78 1817.51,1751.55 1834.04,1792.93C1834.04,1792.93 1806.48,1795.68 1831.28,1867.35C1831.28,1867.35 1803.72,1848.06 1800.96,1875.62C1798.19,1903.2 1792.67,1856.34 1861.6,1939.05L1836.8,1933.52L1869.89,1963.86L1853.35,1961.09L1905.74,2013.47L1858.85,1994.18L1886.44,2024.5L1831.29,1991.42L1828.53,2007.95C1828.53,2007.95 1776.14,1952.82 1751.35,1947.29C1726.55,1941.78 1737.57,1944.54 1740.32,1958.33C1743.07,1972.12 1748.58,1974.87 1762.36,1980.38C1776.13,1985.9 1800.97,2007.95 1787.18,2018.99C1773.41,2030.02 1745.82,2002.45 1743.09,1994.18C1740.32,1985.9 1721.02,1991.42 1726.55,2005.2C1732.05,2018.99 1751.35,2038.29 1751.35,2038.29C1751.35,2038.29 1740.32,2035.54 1748.58,2052.08C1756.87,2068.61 1811.99,2054.83 1850.59,2079.64C1889.19,2104.45 1898.77,2128.87 1926.13,2153.29C1935.8,2161.93 1937.53,2154.36 1940.77,2158.17C1946.52,2164.9 1939.78,2170.87 1939.78,2170.87C1939.78,2170.87 1950.78,2181.31 1914,2170.62C1900.2,2166.6 1881.58,2116.12 1835.88,2095.25C1793.63,2075.97 1745.9,2078.73 1745.9,2078.73C1745.9,2078.73 1749.54,2085.37 1747.34,2092.92C1743.54,2105.94 1737.11,2104.98 1737.11,2104.98C1737.11,2104.98 1776.14,2143.06 1773.41,2156.85C1770.64,2170.62 1765.12,2159.6 1765.12,2159.6C1765.12,2159.6 1734.8,2129.27 1718.26,2118.25C1701.72,2107.22 1715.5,2129.28 1715.5,2129.28L1676.06,2108.38C1676.06,2108.38 1660.56,2112.43 1699.64,2127.7C1719.27,2135.38 1721.75,2161.58 1750.3,2169.92C1773.73,2176.74 1772.76,2176.74 1772.76,2176.74L1767.87,2192.37C1767.87,2192.37 1746.26,2198.1 1715.49,2173.39C1696.56,2158.18 1698.82,2143.99 1676.04,2138.65C1654.41,2133.55 1659.48,2112.94 1632.78,2101.7C1632.78,2101.7 1610.74,2098.95 1613.5,2112.74C1616.24,2126.51 1613.35,2098.55 1594.2,2096.2C1588.33,2095.47 1590.91,2091.54 1604.2,2115.71C1604.79,2116.74 1661.05,2141.92 1765.11,2272.64C1804.63,2322.26 1756.85,2302.96 1756.85,2302.96C1756.85,2302.96 1678.65,2181.87 1615.11,2157.37L1622.96,2212.47C1622.96,2212.47 1603.91,2215.46 1591.42,2223.01C1589.74,2224.02 1597.63,2164.78 1583.63,2149.79C1569.9,2135.07 1541.83,2119.92 1541.83,2119.92C1541.83,2119.92 1537.63,2119.92 1536.26,2123.76C1532.33,2134.77 1563.84,2161.53 1551.38,2171.29C1519.72,2196.09 1511.46,2156.85 1522.47,2145.81C1533.52,2134.78 1508.69,2140.3 1508.69,2140.3L1497.67,2165.11C1497.67,2165.11 1478.37,2145.81 1450.81,2145.81C1423.22,2145.81 1412.2,2129.27 1412.2,2129.27L1406.67,2143.05C1406.67,2143.05 1359.82,2121 1304.69,2046.56C1304.69,2046.56 1285.39,2027.27 1257.82,2013.48C1230.25,1999.7 1244.03,1983.15 1224.74,1974.88C1205.44,1966.61 1142.03,1930.77 1119.96,1914.22C1097.9,1897.7 1081.37,1817.74 1031.75,1828.76C1031.75,1828.76 987.635,1806.71 979.36,1795.68C971.085,1784.65 993.134,1781.9 946.274,1779.14C899.401,1776.39 891.14,1735.04 891.14,1735.04C891.14,1735.04 880.115,1715.74 852.542,1707.47C824.981,1699.19 681.626,1608.23 623.729,1453.85C623.729,1453.85 623.729,1445.56 596.155,1423.51C568.594,1401.46 483.798,1346.6 461.075,1169.89C451.348,1094.29 458.313,1134.05 439.014,1095.45C419.715,1056.85 356.318,941.073 403.178,894.2C450.051,847.328 485.886,858.365 521.722,825.279C521.722,825.279 532.746,819.767 560.32,819.767C587.881,819.767 676.101,764.632 676.101,764.632L698.162,775.657C698.162,775.657 827.73,828.042 670.589,987.933C670.641,987.907 712.001,1040.28 736.812,1098.18Z"/>
        <path d="M943.33,691.198C943.33,691.198 868.572,790.883 904.563,873.942C904.563,873.942 902.073,1005.2 834.864,1029.35C834.864,1029.35 880.012,1015.69 893.656,992.589C907.313,969.49 887.352,1036.69 808.613,1069.24C729.861,1101.79 861.115,1049.29 861.115,1049.29C861.115,1049.29 841.154,1078.69 803.36,1090.24C765.553,1101.79 852.71,1083.93 869.519,1063.99C886.315,1044.04 826.459,1138.54 739.316,1119.64C739.316,1119.64 742.467,1218.34 673.17,1259.29C673.17,1259.29 719.368,1185.79 704.673,1151.14C689.979,1116.49 674.22,1087.1 651.121,1108.1C628.022,1129.1 591.279,1152.19 566.065,1141.7C566.065,1141.7 656.361,1102.85 642.717,1044.05C642.717,1044.05 558.712,1120.7 486.262,1064C486.262,1064 579.723,1059.8 593.367,1004.16L551.371,998.905C551.371,998.905 619.527,988.05 662.379,952.059C721.482,902.41 752.947,820.61 676.321,795.202C676.321,795.202 658.475,795.202 645.868,880.258C645.868,880.258 628.022,900.205 632.224,869.752C636.426,839.299 652.172,803.594 657.424,792.051C662.677,780.495 562.927,836.148 562.927,836.148C562.927,836.148 539.828,849.805 540.878,868.702C541.929,887.599 548.232,891.801 583.925,892.852C619.618,893.902 605.973,889.7 605.973,889.7C605.973,889.7 548.219,916.988 528.271,906.496C508.324,896.003 517.766,851.906 527.221,847.704C527.221,847.704 509.375,844.552 479.972,862.399C450.57,880.245 455.822,869.752 436.925,873.955C418.016,878.157 383.373,931.709 414.877,984.198C446.38,1036.69 420.13,1051.39 445.33,1077.64C470.53,1103.88 476.833,1113.34 479.972,1156.38C483.124,1199.43 491.528,1184.74 494.667,1204.68C497.818,1224.64 523.019,1240.38 540.865,1257.18C558.712,1273.98 542.966,1265.58 555.56,1294.98C568.154,1324.38 592.303,1347.48 610.15,1349.58C627.996,1351.67 624.844,1360.09 625.895,1374.77C626.945,1389.48 652.133,1473.46 721.443,1546.96C790.754,1620.45 870.544,1687.65 984.989,1681.35C984.989,1681.35 1020.7,1678.2 991.292,1692.9C961.89,1707.6 941.942,1713.9 941.942,1713.9C941.942,1713.9 993.393,1713.9 1004.94,1702.35C1016.48,1690.79 984.989,1723.35 954.536,1729.63C924.083,1735.94 1012.29,1722.29 1017.53,1717.04C1022.78,1711.79 1019.63,1729.63 999.684,1739.08C979.723,1748.53 1058.47,1745.38 1070.03,1738.03L1058.47,1745.38C1058.47,1745.38 1074.22,1753.77 1093.13,1742.23C1112.03,1730.67 1081.58,1766.38 1043.78,1768.48C1005.97,1770.57 1083.69,1768.48 1120.43,1776.86C1157.19,1785.26 1142.48,1782.11 1165.58,1807.31C1188.68,1832.52 1293.67,1913.38 1373.47,1909.17C1373.47,1909.17 1388.19,1918.63 1361.92,1919.68C1335.68,1920.73 1230.66,1920.73 1163.48,1845.13C1096.27,1769.53 1078.42,1791.58 1065.83,1788.43C1065.83,1788.43 1126.72,1854.6 1187.63,1903.94C1248.53,1953.29 1220.18,1916.53 1246.43,1950.13C1272.68,1983.74 1295.78,1990.03 1317.82,2016.28C1339.88,2042.53 1452.23,2130.74 1472.16,2135.98C1492.12,2141.23 1487.92,2126.52 1492.12,2126.52C1496.3,2126.52 1501.58,2127.57 1508.91,2123.37C1516.26,2119.18 1522.57,2116.02 1526.75,2111.82C1530.95,2107.61 1536.22,2106.57 1544.61,2106.57C1553.01,2106.57 1557.23,2110.76 1554.06,2098.17C1550.92,2085.58 1557.23,2082.43 1557.23,2082.43C1557.23,2082.43 1561.4,2077.17 1565.61,2076.14C1569.81,2075.09 1577.16,2072.98 1577.16,2072.98C1577.16,2072.98 1591.86,2080.32 1586.62,2064.58C1581.38,2048.83 1585.58,2043.58 1585.58,2043.58C1585.58,2043.58 1588.72,2044.64 1588.72,2041.49C1588.72,2038.34 1587.68,2026.79 1588.72,2022.58C1589.76,2018.39 1586.62,2018.39 1599.21,2022.58C1611.83,2026.79 1611.83,2025.74 1625.48,2026.79C1639.12,2027.84 1643.31,2022.58 1643.31,2022.58C1643.31,2022.58 1626.51,2020.5 1621.27,2011.04C1616.03,2001.59 1612.87,1990.04 1612.87,1984.79C1612.87,1979.55 1616.03,1973.23 1627.59,1973.23C1639.14,1973.23 1654.88,1983.75 1660.12,1986.89C1664.6,1989.48 1669.15,1991.93 1673.77,1994.24L1674.84,1980.59C1674.84,1980.59 1670.63,1980.59 1688.5,1985.83C1706.33,1991.08 1707.39,1994.23 1710.53,1994.23C1713.69,1994.23 1715.77,1983.73 1714.73,1980.57C1709.13,1963.75 1706.7,1980.57 1718.93,1957.48C1728.39,1939.63 1730.49,1938.58 1730.49,1931.22C1730.49,1923.88 1725.23,1918.63 1730.49,1908.14C1735.73,1897.63 1725.23,1892.38 1746.22,1885.04C1767.22,1877.7 1779.84,1876.65 1779.84,1876.65C1779.84,1876.65 1784.04,1865.09 1784.04,1856.7C1784.04,1848.31 1777.74,1840.94 1795.6,1847.25C1813.43,1853.54 1809.23,1851.43 1809.23,1851.43C1809.23,1851.43 1809.23,1866.14 1806.09,1819.94C1802.95,1773.75 1803.78,1780.3 1802.95,1773.75C1802.1,1767.18 1797.69,1770.59 1797.69,1770.59L1796.65,1790.54L1791.41,1790.54C1791.41,1790.54 1793.54,1769.26 1792.45,1761.14C1791.36,1753.02 1785.11,1761.14 1785.11,1761.14L1785.11,1786.34L1778.8,1782.14C1778.8,1782.14 1779.34,1761.98 1779.87,1752.73C1780.4,1743.49 1770.41,1748.53 1770.41,1748.53L1771.45,1774.78L1764.11,1773.73C1764.11,1773.73 1763.32,1751 1763.07,1742.23C1762.8,1733.46 1757.81,1739.08 1757.81,1739.08L1756.77,1766.38L1751.53,1761.12C1751.53,1761.12 1751.85,1741.62 1752.57,1732.77C1753.28,1723.93 1748.36,1730.67 1748.36,1730.67L1747.33,1757.96L1743.12,1754.82C1743.12,1754.82 1742.97,1736.33 1743.12,1726.47C1743.28,1716.6 1733.67,1723.32 1733.67,1723.32L1733.67,1751.67L1728.43,1747.48C1728.43,1747.48 1727.72,1729.7 1728.43,1719.12C1729.12,1708.56 1722.12,1719.12 1722.12,1719.12C1722.12,1719.12 1720.96,1729.6 1720.02,1730.67C1719.12,1731.75 1715.67,1726.61 1713.75,1728.57C1711.8,1730.53 1712.68,1740.13 1712.68,1740.13L1707.44,1736.98C1707.44,1736.98 1708.77,1715.94 1709.55,1704.43C1710.34,1692.92 1702.18,1702.33 1702.18,1702.33C1702.18,1702.33 1703.72,1718.52 1703.24,1721.23C1702.76,1723.94 1699.47,1720.39 1699.04,1722.28C1698.61,1724.17 1699.04,1729.62 1699.04,1729.62L1691.7,1727.52C1691.7,1727.52 1695.21,1695.95 1694.84,1690.78C1694.46,1685.62 1689.6,1690.78 1689.6,1690.78L1688.56,1707.57L1688.56,1718.08L1684.36,1718.08C1684.36,1718.08 1684.79,1697.24 1684.12,1692.89C1683.49,1688.55 1678.94,1690.49 1678.88,1691.84C1678.86,1693.19 1677,1709.69 1677,1709.69C1677,1709.69 1671.35,1706.74 1670.7,1708.64C1670.05,1710.53 1670.7,1717.04 1670.7,1717.04L1666.5,1713.89L1666.5,1694.98L1671.74,1694.98C1671.74,1694.98 1674.1,1675.25 1672.8,1671.89C1671.5,1668.53 1666.85,1668.92 1666.5,1671.89C1666.15,1674.86 1666.5,1690.79 1666.5,1690.79C1666.5,1690.79 1660.19,1687.64 1660.19,1690.79C1660.19,1693.94 1659.16,1705.5 1659.16,1705.5L1653.92,1701.3C1653.92,1701.3 1657.26,1678.39 1657.06,1669.79C1656.87,1661.19 1649,1665.55 1648.68,1668.74C1648.33,1671.93 1647.74,1682.98 1646.58,1683.45C1645.38,1683.9 1643.01,1680.05 1642.37,1683.45C1641.74,1686.84 1643.41,1698.14 1643.41,1698.14L1638.17,1698.14C1638.17,1698.14 1638.28,1671.01 1638.17,1667.69C1638.07,1664.37 1634.29,1665.75 1633.18,1667.8C1632.09,1669.84 1631.86,1684.5 1631.86,1684.5L1627.68,1683.45L1626.62,1692.9L1620.31,1691.85C1620.31,1691.85 1620.18,1667.1 1620.31,1661.4C1620.47,1655.72 1617.39,1661.89 1617.17,1663.5C1616.94,1665.1 1617.17,1679.25 1617.17,1679.25L1609.83,1680.3L1608.8,1688.69L1605.63,1687.64L1607.99,1673.68C1607.99,1673.68 1609.85,1650.48 1609.85,1647.74C1609.85,1645.01 1605.03,1644.41 1604.61,1647.74C1604.15,1651.09 1603.25,1665.76 1603.25,1665.76L1599.34,1666.64L1599.34,1679.25L1593.98,1679.25C1593.98,1679.25 1595.28,1658.87 1595.05,1653.01C1594.79,1647.13 1589.78,1654.06 1589.78,1654.06L1588.74,1667.7L1583.51,1666.65L1583.51,1677.16L1579.3,1678.21C1579.3,1678.21 1581.4,1649.86 1581.4,1646.71C1581.4,1643.57 1581.61,1634.52 1581.4,1628.86C1581.2,1623.2 1572.16,1624.74 1572.05,1626.86C1571.92,1629 1572.05,1641.89 1572.05,1641.89L1572.99,1653.01L1570.88,1663.52L1566.71,1663.52C1566.71,1663.52 1566.07,1644.15 1566.71,1639.37C1567.32,1634.58 1561.31,1635.67 1561.61,1638.95C1561.91,1642.23 1560.39,1653.02 1560.39,1653.02L1554.09,1653.02C1554.09,1653.02 1553.96,1638.92 1554.09,1635.18C1554.22,1631.41 1550.44,1630.9 1549.89,1633.08C1549.33,1635.24 1548.85,1655.11 1548.85,1655.11L1544.65,1652.5C1544.65,1652.5 1543.16,1646.25 1543.61,1641.47C1544.04,1636.69 1537.42,1635.72 1537.31,1637.26L1536.27,1649.87L1532.07,1649.87C1532.07,1649.87 1535.39,1631.83 1534.7,1627.11C1534.01,1622.39 1527.18,1626.27 1527.36,1628.16C1527.57,1630.05 1526.8,1653.02 1526.8,1653.02L1520.52,1650.92C1520.52,1650.92 1520.87,1630.42 1520.52,1628.87C1520.17,1627.33 1514.22,1632.02 1514.22,1632.02C1514.22,1632.02 1498.46,1641.48 1493.22,1656.16C1487.98,1670.87 1490.08,1655.11 1490.08,1655.11L1497.42,1623.62C1498.69,1618.08 1495.06,1616.4 1493.22,1619.42C1491.38,1622.44 1482.73,1636.21 1482.73,1636.21C1482.73,1636.21 1490.25,1617.73 1492.18,1612.08C1494.08,1606.4 1489.75,1602.97 1487.98,1605.77C1486.2,1608.59 1477.27,1620.62 1473.26,1625.72C1469.28,1630.84 1470.12,1621.53 1470.12,1621.53C1470.12,1621.53 1479.53,1605.53 1482.74,1600.53C1485.93,1595.54 1479.15,1587.64 1476.44,1592.14C1473.7,1596.64 1466.31,1609.86 1461.08,1619.03C1455.84,1628.2 1458.45,1613.49 1458.45,1613.49C1458.45,1613.49 1468.1,1592.47 1471.45,1587.47C1474.79,1582.49 1468.1,1578.62 1464.11,1583.28C1460.12,1587.94 1460.23,1590.52 1454.43,1599.07C1448.61,1607.63 1448.1,1596.33 1448.1,1596.33C1448.1,1596.33 1460.49,1577.79 1463.86,1570.09C1467.2,1562.39 1462.42,1564.41 1459.66,1566.94C1456.87,1569.46 1455.8,1571.9 1450.86,1581C1445.89,1590.09 1443.52,1581 1443.52,1581C1443.52,1581 1446.58,1575.8 1450.11,1568.55C1453.61,1561.3 1441.1,1555.63 1438.66,1560.65C1436.22,1565.66 1392.46,1695.03 1239.16,1719.19C1085.86,1743.36 1014.47,1684.55 997.66,1621.56L1016.57,1636.25L1020.77,1623.66C1020.77,1623.66 1104.77,1719.19 1241.26,1686.64C1377.77,1654.1 1498.49,1343.3 1490.11,1195.26C1490.11,1195.26 1490.11,1173.21 1472.25,1148.01C1472.25,1148.01 1500.6,1162.7 1513.18,1150.11C1525.8,1137.51 1545.76,1125.96 1533.14,1035.66C1533.14,1035.66 1523.69,974.769 1446,930.671C1368.31,886.574 1365.15,857.172 1341,835.123C1316.86,813.075 1297.96,771.078 1222.35,747.979C1222.35,747.979 1244.4,762.674 1244.4,772.116C1244.4,781.571 1131,673.416 931.501,740.625C931.501,740.625 956.702,686.036 1074.3,700.717C1074.3,700.717 1091.09,696.528 1088.99,681.821C1086.89,667.126 1055.39,541.125 1043.85,525.379C1032.3,509.634 1081.65,553.744 1081.65,562.123C1081.65,570.527 1082.7,501.23 1061.7,483.37C1040.71,465.524 1021.81,410.921 1015.51,396.226C1009.2,381.532 1007.1,324.828 982.953,297.526C958.803,270.238 910.503,256.581 865.356,290.186C820.208,323.777 841.206,342.674 835.953,360.534C830.7,378.393 823.36,419.338 820.208,428.78C817.056,438.235 828.612,397.29 838.054,384.683C847.496,372.077 864.305,353.18 887.404,348.977C910.503,344.775 925.211,337.421 936.754,345.826C948.31,354.217 953.55,357.369 953.55,372.077C953.55,386.771 952.5,400.429 949.348,404.631C946.196,408.833 869.545,406.732 827.549,449.778C827.549,449.778 817.043,446.627 840.155,424.578C863.255,402.53 928.35,390.974 932.552,390.974C936.754,390.974 936.754,373.127 936.754,368.925C936.754,364.723 873.475,327.824 821.946,433.67C821.946,433.67 814.735,440.687 817.497,457.911C820.247,475.134 818.185,490.296 857.47,513.045C896.755,535.794 978.776,499.258 981.526,429.649C984.288,360.041 981.526,333.842 980.151,331.092C978.776,328.343 1052.52,473.76 989.801,527.519C989.801,527.519 1006.34,526.832 1019.44,530.969C1032.54,535.094 942.941,542.681 931.216,569.567C919.504,596.454 989.801,541.306 1021.5,542.006C1053.2,542.694 961.539,603.34 930.529,590.254C899.466,577.142 943.33,691.198 943.33,691.198Z" style="fill:rgb(136,197,211);"/>
        <path d="M1164.05,700.951C1164.05,700.951 1197.2,583.419 1212.27,563.822C1227.34,544.237 1221.32,545.742 1236.38,565.326C1251.45,584.923 1275.55,593.963 1307.21,593.963C1338.84,593.963 1344.87,596.972 1337.35,609.034C1329.8,621.083 1296.64,735.619 1293.63,744.659C1290.62,753.699 1295.15,758.225 1260.49,749.185C1225.82,740.146 1188.15,717.539 1177.6,717.539C1167.06,717.526 1158.02,716.022 1164.05,700.951Z" style="fill:rgb(136,197,211);"/>
        <path d="M1408.15,655.751C1364.51,730.366 1362.53,737.15 1343.36,758.225C1328.31,774.801 1332.83,780.832 1346.37,795.903C1359.94,810.973 1375.02,847.133 1387.08,862.204C1399.11,877.288 1402.12,911.93 1430.77,863.721C1459.4,815.5 1457.9,827.549 1459.4,815.5C1460.91,803.451 1435.29,789.885 1429.26,765.774C1423.22,741.663 1418.72,716.048 1442.83,703.986C1466.92,691.924 1462.42,691.924 1485.01,690.419C1507.63,688.915 1524.19,670.835 1534.74,661.782C1545.3,652.742 1567.9,640.68 1554.35,621.096C1540.77,601.512 1525.72,529.179 1503.11,506.573C1480.51,483.967 1483.52,443.281 1460.93,416.148C1438.31,389.028 1415.71,343.815 1325.3,384.515C1258.12,414.734 1272.54,455.33 1242.41,483.967C1212.27,512.604 1245.42,566.857 1295.16,563.835C1344.89,560.826 1376.52,548.764 1408.17,524.653C1439.83,500.555 1447.35,488.493 1453.38,482.462C1459.41,476.431 1474.48,470.4 1466.93,486.989C1459.41,503.564 1457.92,532.188 1447.35,565.352C1436.82,598.503 1435.29,601.525 1423.24,612.069C1411.19,622.614 1424.76,606.038 1454.9,621.109C1485.01,636.18 1492.56,642.211 1512.14,642.211C1531.73,642.211 1474.48,675.336 1408.15,655.751ZM1533.25,880.284C1525.37,889.026 1506.11,916.444 1500.08,919.466C1494.05,922.487 1485.01,923.992 1498.59,939.05C1512.14,954.121 1528.71,976.727 1533.25,994.807C1537.76,1012.89 1549.81,1030.97 1561.87,1033.99C1573.93,1037.01 1585.98,1024.95 1602.56,999.333C1619.14,973.718 1653.8,930.023 1667.35,919.466C1680.93,908.921 1691.47,901.373 1682.42,901.373C1673.38,901.373 1631.18,916.444 1599.54,908.908C1567.89,901.373 1555.84,878.779 1552.82,874.253C1549.81,869.726 1546.8,865.213 1533.25,880.284Z" style="fill:rgb(136,197,211);"/>
        <path d="M1644.75,741.65C1646.58,755.087 1655.28,804.943 1601.05,851.647C1601.05,851.647 1575.44,862.191 1604.06,872.735C1632.69,883.28 1652.3,886.302 1673.37,883.28C1694.47,880.271 1723.1,881.775 1702,850.129C1680.92,818.496 1686.95,806.434 1685.43,779.314C1683.94,752.182 1683.94,708.486 1671.88,693.416C1659.82,678.345 1640.25,631.628 1602.54,645.194C1564.88,658.747 1554.34,670.809 1554.34,670.809C1554.34,670.809 1552.82,673.818 1566.4,684.376C1579.95,694.92 1592.01,719.031 1576.93,725.062C1561.85,731.093 1548.31,746.164 1527.2,752.182C1506.1,758.212 1512.13,764.243 1492.55,738.628C1472.94,713 1466.93,711.508 1459.38,711.508C1451.86,711.508 1423.21,738.628 1451.86,767.265C1480.49,795.903 1518.15,829.053 1572.41,789.872C1626.65,750.69 1625.15,734.115 1625.15,734.115C1625.15,734.115 1640.22,708.486 1644.75,741.65Z" style="fill:rgb(136,197,211);"/>
        <path d="M1478.98,708.486C1485.01,713 1501.6,726.566 1504.62,735.606C1507.64,744.646 1506.11,743.142 1527.22,738.615C1548.32,734.089 1581.48,719.018 1555.84,697.929C1530.23,676.84 1537.75,690.394 1509.12,696.424C1480.5,702.455 1478.98,708.486 1478.98,708.486ZM1282.11,402.244C1273.07,417.315 1297.31,384.502 1313.37,374.372C1329.43,364.23 1347.16,367.615 1325.2,341.416C1303.24,315.217 1290.54,302.546 1286.34,283.117C1282.11,263.675 1273.64,215.519 1250,202.004C1226.34,188.477 1168.04,166.519 1138.47,211.29C1108.9,256.075 1115.66,269.603 1106.36,280.588C1097.07,291.573 1114.82,269.603 1130.03,261.989C1145.23,254.389 1193.39,228.203 1209.46,269.59C1209.46,269.59 1216.21,300.86 1193.4,330.431C1170.59,360.002 1187.49,338.031 1187.49,338.031C1187.49,338.031 1104.67,328.745 1083.56,363.387C1062.43,398.029 1084.4,360.858 1084.4,360.858C1084.4,360.858 1067.5,354.101 1095.39,337.188C1123.27,320.288 1162.99,326.203 1172.29,326.203C1181.57,326.203 1183.27,327.046 1188.33,311.845C1193.4,296.631 1204.38,255.232 1140.17,273.818C1140.17,273.818 1098.77,299.161 1095.39,316.916C1095.39,316.916 1097.07,299.174 1100.46,295.801C1103.83,292.416 1072.57,316.916 1070.89,364.23C1069.2,411.544 1140.17,412.387 1166.37,409.858C1192.57,407.328 1240.71,353.245 1250.87,336.345C1261.01,319.445 1275.37,294.945 1277.07,317.759C1278.71,340.56 1284.64,398.016 1282.11,402.244Z" style="fill:rgb(136,197,211);"/>
        <path d="M930.71,951.151C930.71,951.151 914.174,1052.24 881.088,1088.99C881.088,1088.99 884.758,1153.31 879.246,1164.35C873.734,1175.38 836.965,1175.37 822.27,1190.08C807.575,1204.79 803.892,1230.52 846.16,1263.59C846.16,1263.59 833.294,1285.65 829.624,1305.86C825.941,1326.08 851.673,1274.62 857.185,1270.95C862.697,1267.28 871.879,1276.46 892.099,1280.14C892.099,1280.14 870.038,1324.24 864.539,1324.24C859.013,1324.24 807.562,1304.02 802.05,1348.14L796.538,1392.24C796.538,1392.24 780.002,1388.57 796.538,1399.59C813.075,1410.62 828.651,1410.61 867.236,1412.45C905.834,1414.28 919.868,1405.5 978.491,1430.82C1032.82,1454.31 1018.92,1449.2 1052,1458.4C1085.08,1467.59 1114.49,1476.78 1132.87,1458.4C1151.25,1440.02 1164.1,1401.42 1171.47,1364.67C1178.82,1327.91 1239.48,1232.34 1257.86,1186.38C1276.24,1140.44 1296.44,1055.89 1228.44,951.138C1160.44,846.381 1145.74,850.051 1040.98,820.636C936.222,791.233 943.395,877.197 939.893,899.674C936.676,920.347 944.225,923.759 953.213,932.747C958.725,938.259 975.274,939.646 980.774,939.646C986.286,939.646 967.454,1116.54 949.076,1136.76L899.44,1155.14C899.44,1155.14 947.234,1070.59 936.197,986.052C925.185,901.528 930.71,951.151 930.71,951.151Z"/>
        <path d="M1154.94,884.966C1155.02,888.662 1128.31,936.845 1116.94,937.675C1105.09,938.531 1084.43,930.088 1083.51,924.757C1082.59,919.427 1096.65,864.253 1115.43,863.994C1143.6,863.592 1154.88,881.283 1154.94,884.966ZM1090.9,855.045C1091.98,859.39 1073.14,923.395 1059.95,927.364C1046.18,931.527 1017.19,925.678 1015.78,920.438C1014.37,915.198 1016.56,846.005 1038.67,840.726C1071.83,832.789 1089.84,850.7 1090.9,855.045ZM1150.83,946.923C1150.83,946.923 1160.4,961.747 1187.32,942.318C1214.23,922.89 1195.31,918.195 1185.18,908.843C1175.05,899.492 1162.73,884.382 1153.61,919.479C1144.49,954.575 1150.83,946.923 1150.83,946.923ZM1127.24,1435.23C1127.24,1435.23 1147.59,1439.1 1152.48,1407.6C1157.37,1376.12 1125.78,1426 1127.24,1435.23ZM1074.47,1446.09C1074.47,1446.09 1093.75,1465.38 1110.3,1446.09C1126.84,1426.79 1110.3,1413 1110.3,1413C1110.3,1413 1107.55,1382.68 1082.74,1382.68C1057.93,1382.68 1074.47,1446.09 1074.47,1446.09ZM1007.31,1421.53C1007.31,1421.53 1055.48,1461.16 1054.49,1422.47C1053.51,1383.78 1049.97,1375.82 1023.94,1364.5C1023.92,1364.5 1010.75,1371.32 1007.31,1421.53ZM962.551,1345.59C962.551,1345.59 998.607,1349.08 999.658,1365.81C1000.72,1382.54 993.899,1418.09 993.899,1418.09C993.899,1418.09 949.179,1421.8 948.972,1396.84C948.764,1371.88 944.108,1344.49 962.551,1345.59ZM931.852,1344.49C931.852,1344.49 940.982,1405.57 927.247,1404.4L875.057,1399.98L874.875,1369.52C874.875,1369.53 869.843,1328.35 931.852,1344.49ZM858.119,1343.54C858.119,1343.54 867.146,1377.21 858.884,1390.98C850.609,1404.77 805.734,1398.67 814.021,1368.35C822.27,1338.03 833.307,1338.03 858.119,1343.54ZM1017.82,837.886C1017.82,837.886 1010.25,880.595 1004.04,904.745C997.842,928.882 962.836,918.182 959.477,907.884C956.118,897.586 961.034,855.084 961.034,855.084C961.034,855.084 966.675,814.021 1017.82,837.886ZM1489.42,902.449C1489.42,902.449 1530.78,855.576 1539.04,850.064C1547.33,844.552 1530.78,841.79 1530.78,833.528C1530.78,825.266 1505.96,830.778 1505.96,830.778C1505.96,830.778 1483.92,880.388 1489.42,902.449ZM1376.39,612.977L1398.45,640.551L1365.37,679.149C1365.37,679.136 1376.39,635.026 1376.39,612.977ZM1795.38,1889.79C1795.38,1889.79 1837.21,1917.26 1844.37,1926.81C1851.53,1936.37 1803.73,1908.89 1803.73,1908.89L1806.12,1924.43L1785.81,1917.24L1800.16,1936.37L1776.25,1926.81L1815.69,1974.61L1749.98,1924.44C1749.98,1924.44 1747.57,1894.56 1776.25,1895.75C1804.92,1896.96 1795.38,1889.79 1795.38,1889.79Z" style="fill:white;"/>
        <path d="M1822.3,1956.48C1822.3,1956.48 1826.51,1960.7 1835.99,1967.83C1845.42,1974.94 1855.18,1984.41 1855.18,1984.41L1845.61,1967.67L1861.29,1976.32L1817.12,1936.7C1817.12,1936.7 1806.62,1939.37 1807.47,1945.28C1808.31,1951.2 1822.3,1956.48 1822.3,1956.48ZM1745.42,1990.11C1742.55,1989.34 1763.58,2020.05 1779.31,2017.67C1789.97,2016.05 1790.07,2012.09 1780.83,2001.99C1771.58,1991.88 1756.05,1992.89 1745.42,1990.11ZM1631.53,1993.65C1631.53,1993.65 1649.55,2008.82 1672.85,2025.07C1696.16,2041.34 1688.74,2028.33 1688.74,2028.33C1688.74,2028.33 1641.09,1995.81 1637.9,1989.3C1634.72,1982.81 1632.6,1986.06 1631.53,1993.65ZM1693.44,2020.81C1693.44,2020.81 1692.5,2029.99 1709.97,2038.26C1727.43,2046.54 1731.1,2040.11 1731.1,2040.11C1731.1,2040.11 1731.1,2038.26 1715.47,2030C1699.87,2021.71 1705.37,2022.63 1693.44,2020.81ZM1654.15,2023.75C1655.62,2021.73 1680.27,2047.16 1701.01,2057.55C1717.04,2065.59 1719.93,2066.47 1728.95,2068.47C1729.66,2068.63 1707.5,2071.14 1713.98,2090.6C1714.14,2091.09 1717.17,2094.31 1718.9,2095.69C1719.75,2096.39 1738.99,2108.39 1740.05,2089.34C1740.1,2088.42 1720.75,2079.21 1721,2078.42C1723.33,2070.75 1731.81,2072.35 1734.52,2074.58C1734.93,2074.92 1736.02,2075.23 1737.59,2076.62C1747.64,2085.29 1743.27,2100.21 1731.55,2102.37C1722.06,2104.14 1661.44,2058.53 1637.63,2033.78C1637.64,2033.79 1649.44,2030.24 1654.15,2023.75ZM1715.49,2049.29L1722.83,2052.05L1729.26,2049.29L1723.76,2046.53L1715.49,2049.29ZM1733.88,2052.05L1731.11,2057.56L1735.7,2055.72C1735.69,2055.72 1743.98,2052.96 1733.88,2052.05Z" style="fill:rgb(204,82,77);"/>
        <path d="M1612.56,2242.14C1612.99,2235.82 1605.16,2350.56 1649.66,2334.92C1694.15,2319.28 1610.46,2274.46 1612.56,2242.14ZM1786.61,2135.26C1780.98,2133.2 1887.66,2175.09 1854.81,2202.32C1821.98,2229.53 1815.44,2145.78 1786.61,2135.26Z"/>
        <path d="M1749.51,2063.06C1749.51,2063.06 1760.53,2066.74 1794.52,2071.34C1828.52,2075.93 1845.97,2085.11 1855.17,2089.71C1864.37,2094.32 1880.9,2109.93 1891.93,2124.64C1900.13,2135.56 1913.08,2161.39 1933.29,2161.39L1933.29,2167.82C1933.29,2167.82 1914.89,2175.17 1890.1,2132.9C1890.1,2132.9 1854.25,2093.39 1846.91,2091.56C1839.57,2089.7 1804.63,2076.84 1793.62,2076.84C1782.6,2076.84 1748.57,2073.16 1743.99,2070.4C1739.39,2067.67 1749.51,2063.06 1749.51,2063.06ZM1822.78,2181.4C1822.78,2181.4 1836.41,2210.31 1848.49,2202.88C1873.72,2187.4 1839.37,2163.6 1839.37,2171.55C1839.37,2179.21 1843.81,2197.78 1822.78,2181.4ZM1732.4,2117.74C1732.4,2117.74 1756.61,2143.41 1763.12,2149.89C1769.63,2156.38 1768.06,2147.81 1768.06,2147.81C1768.06,2147.81 1752.15,2128.87 1740.3,2114.21C1728.44,2099.56 1738.35,2114.88 1732.4,2117.74ZM1676.32,2128.03C1676.32,2128.03 1695.59,2130.36 1700.79,2135.32C1713.79,2147.72 1712.59,2158.34 1732.02,2167.83C1750.89,2177.05 1763.28,2178.87 1763.28,2178.87L1761.98,2186.48C1761.98,2186.48 1755.15,2188.43 1728.34,2174.28C1706.99,2163.01 1703.25,2145.54 1697.51,2140.57C1690.29,2134.32 1675.39,2133.55 1675.39,2133.55C1675.39,2133.55 1663.45,2128.93 1676.32,2128.03Z" style="fill:rgb(204,82,77);"/>
        <path d="M1598.29,2147.22C1598.29,2147.22 1600.34,2188.57 1598.98,2203.73C1597.62,2218.89 1601.03,2211.31 1601.03,2211.31C1601.03,2211.31 1603.1,2158.23 1601.03,2145.84C1598.98,2133.44 1598.29,2147.22 1598.29,2147.22Z" style="fill:white;"/>
        <path d="M1616.54,2150.67C1616.54,2150.67 1676.9,2177.01 1762.35,2299.23C1762.35,2299.23 1773.39,2302.21 1773.39,2294.64C1773.39,2287.06 1703.81,2193.84 1610.39,2125.07C1610.38,2125.07 1612.74,2133.6 1616.54,2150.67ZM1526.63,2153.72C1524.51,2156.89 1524.19,2180.97 1540.03,2173.38C1551.2,2168.03 1550.39,2162.8 1548.97,2158.2C1546.87,2151.43 1529.3,2125.04 1531.54,2129.57C1533.49,2133.57 1536.46,2138.96 1526.63,2153.72ZM1621.07,2289.12C1621.07,2289.12 1619.24,2343.88 1652.48,2329.55C1677.13,2318.94 1622.97,2320.71 1621.07,2289.12ZM1596.24,2077.55L1610.04,2091.32C1610.04,2091.32 1611.4,2086.5 1612.09,2083.05C1612.78,2079.6 1596.94,2065.82 1596.94,2065.82L1596.24,2077.55ZM1607.39,2065.6C1607.39,2065.6 1645.75,2100.91 1659.45,2110.27C1640.88,2097.57 1659.78,2103.37 1659.78,2095.93C1659.78,2092.48 1623.45,2057.64 1614.52,2055.58C1605.54,2053.5 1607.39,2065.6 1607.39,2065.6Z" style="fill:rgb(204,82,77);"/>
        <path d="M1603.49,2033.23C1603.49,2033.23 1661.4,2087.81 1669.2,2097.57C1678.44,2109.13 1668.24,2087.81 1668.24,2087.81L1668.95,2082.63L1686.78,2103.44L1679.95,2086.84L1703.41,2092.7C1703.41,2092.7 1663.31,2077.56 1632.31,2035.45C1632.3,2035.45 1624.16,2036.93 1603.49,2033.23Z" style="fill:white;"/>
        <path d="M1097.63,320.249C1097.63,320.249 1122.14,266.321 1169.21,271.224C1169.21,271.224 1203.53,271.224 1189.81,307.5C1176.07,343.777 1183.92,325.139 1183.92,325.139C1183.92,325.139 1108.42,320.236 1086.85,346.721C1065.29,373.192 1078.02,362.401 1078.02,362.401C1078.02,362.401 1097.63,341.818 1129.99,339.847C1162.35,337.888 1179.25,335.191 1187.47,338.005C1195.68,340.832 1207.46,313.375 1208.43,295.724C1209.4,278.072 1216.24,245.972 1162.35,248.656C1123.13,250.628 1097.63,317.305 1097.63,320.249ZM1147.63,220.24C1147.63,220.24 1161.37,191.81 1200.59,194.741C1239.81,197.685 1247.64,214.351 1249.61,222.198C1251.57,230.045 1205.49,184.936 1153.52,219.254L1147.63,220.24ZM1034.87,742.869C1029.38,749.276 1029.97,750.716 1014.27,751.702C998.594,752.687 953.485,762.48 938.778,778.173C924.07,793.866 926.028,807.601 926.028,815.435C926.028,823.269 918.195,820.338 918.195,820.338C918.195,820.338 908.389,778.173 930.944,765.437C953.485,752.687 979.969,740.911 985.845,739.938C991.733,738.952 1001.54,734.05 1010.36,734.05C1019.18,734.05 1040.75,736.021 1034.87,742.869ZM1154.34,745.826C1154.34,745.826 1200.59,763.776 1213,772.752C1225.42,781.714 1225.42,775.501 1219.21,769.302C1213.01,763.076 1170.91,738.926 1154.34,745.826ZM1254.18,774.71C1254.18,774.71 1285.43,789.418 1294.63,800.442C1303.8,811.479 1301.97,798.6 1301.97,798.6C1301.97,798.6 1252.34,752.661 1254.18,774.71Z"/>
        <path d="M1274.41,798.6C1274.41,798.6 1307.47,824.319 1320.34,837.198L1333.2,850.064C1333.2,850.064 1342.4,864.772 1351.59,873.955C1360.79,883.137 1368.13,886.821 1368.13,886.821C1368.13,886.821 1353.41,857.405 1344.24,853.735C1335.06,850.064 1316.66,805.954 1274.41,798.6Z"/>
        <path d="M1147.18,1110.7C1147.18,1110.7 1105.31,1106.42 1048.57,1128.82C1035.69,1133.91 1014.99,1143.66 990.436,1156.45C957.467,1173.62 965.677,1167.65 932.124,1182.38C911.243,1191.55 907.43,1187.81 907.43,1187.81C907.43,1187.81 907.287,1206.33 980.618,1184.08C1047.08,1163.91 1058.74,1160.76 1082.17,1149.73C1105.61,1138.69 1147.18,1129.99 1169.24,1127.24C1191.29,1124.48 1185.77,1128.62 1195.42,1128.62L1234.02,1128.62C1234.02,1128.62 1231.27,1136.88 1217.49,1139.64C1203.71,1142.4 1198.19,1142.4 1181.65,1149.29C1165.11,1156.18 1062.12,1229.71 981.772,1245.77C919.751,1258.18 894.94,1251.3 875.641,1244.41C844.241,1233.19 799.832,1203.05 852.204,1186.51C904.576,1169.98 935.483,1161.48 958.336,1149.29C1020.36,1116.22 1108.58,1096.92 1147.18,1110.7Z" style="fill:rgb(204,82,77);"/>
        <path d="M1247.61,495.484C1247.61,495.484 1288.74,460.219 1344.16,477.002C1344.16,477.002 1368.51,479.531 1372.71,471.97C1376.88,464.408 1406.3,409.845 1334.91,411.518C1334.91,411.518 1286.23,412.348 1268.6,454.331C1268.6,454.331 1286.23,429.987 1329.04,429.144C1371.85,428.301 1369.34,430.83 1364.3,451.815C1359.28,472.8 1360.1,466.094 1360.1,466.094C1360.1,466.094 1277.85,435.032 1247.61,495.484ZM656.763,1272.09C651.406,1271.21 625.571,1284.29 623.534,1315.48C621.498,1346.68 625.571,1324.98 629.643,1316.17C633.716,1307.37 651.342,1278.87 655.401,1278.2C659.461,1277.51 660.822,1272.78 656.763,1272.09Z"/>
        <path d="M662.859,1283.62C662.859,1283.62 634.377,1303.95 634.377,1348.73C634.377,1348.73 630.979,1366.35 649.98,1323.63C668.968,1280.91 662.859,1286.34 665.569,1286.34C668.28,1286.34 671.004,1282.94 662.859,1283.62ZM433.566,894.175C433.566,894.175 425.292,957.584 441.828,976.87C441.828,976.87 417.017,987.907 417.017,943.797C417.017,899.687 422.153,894.213 433.566,894.175ZM763.011,1417.97C763.011,1417.97 749.224,1460.71 807.108,1467.59C864.993,1474.48 892.579,1464.83 927.04,1471.72C961.501,1478.61 997.336,1499.29 1035.93,1511.69C1074.53,1524.1 1128.29,1529.62 1150.34,1506.18C1172.39,1482.74 1206.85,1400.03 1228.91,1397.29C1250.96,1394.52 1198.59,1428.97 1193.08,1456.54C1193.08,1456.54 1220.64,1426.22 1230.29,1422.08C1239.93,1417.96 1219.25,1430.36 1195.83,1486.87C1172.39,1543.38 1204.09,1471.7 1216.5,1462.06C1228.91,1452.42 1204.09,1488.26 1204.09,1499.28C1204.09,1510.3 1210.99,1489.63 1219.25,1482.74C1227.52,1475.84 1212.36,1506.18 1209.6,1511.68C1206.85,1517.2 1222.01,1496.52 1228.9,1496.52C1235.79,1496.52 1222.01,1511.68 1215.12,1524.09C1208.24,1536.49 1215.12,1542 1209.61,1547.53C1204.1,1553.04 1171.83,1602.01 1120.02,1584.74C1115.88,1583.36 1106.23,1580.61 1085.56,1583.36C1064.88,1586.12 1070.39,1581.99 1070.39,1581.99C1070.39,1581.99 1091.07,1575.1 1097.95,1575.1C1104.86,1575.1 1063.5,1569.59 1057.98,1570.98C1052.47,1572.35 1073.14,1564.09 1082.79,1564.09C1092.44,1564.09 995.961,1555.81 973.9,1548.93C951.838,1542.03 989.061,1559.95 989.061,1559.95L971.137,1562.71C971.137,1562.71 984.911,1566.85 994.573,1568.23C1004.22,1569.6 997.323,1572.36 997.323,1572.36L975.274,1573.74C975.274,1573.74 991.811,1577.86 995.948,1577.86C1000.07,1577.86 998.698,1588.9 998.698,1588.9L982.161,1588.9C982.161,1588.9 960.113,1595.79 946.326,1588.9C932.552,1582 943.563,1580.62 943.563,1580.62L925.652,1579.25L938.064,1575.11L911.865,1572.36L924.277,1566.85L906.366,1561.33L920.153,1557.2L899.466,1555.83L910.503,1551.69C910.503,1551.69 913.253,1547.57 892.592,1544.8C871.905,1542.04 892.592,1537.92 892.592,1537.92L870.531,1536.54L888.442,1531.03L876.043,1526.89L892.579,1524.14C892.579,1524.14 899.466,1517.26 892.579,1515.87C885.679,1514.47 732.675,1535.13 763.011,1417.97ZM1335.15,971.526C1333.53,967.972 1329.47,954.017 1337.93,967.817C1346.37,981.617 1350.32,1003.93 1350.32,1003.93C1345.64,961.942 1329.91,943.058 1333.31,945.898C1350.28,960.1 1353.39,1003.93 1356.46,987.051C1359.52,970.177 1330.39,924.926 1340.37,935.665C1350.33,946.404 1353.39,970.177 1354.94,960.982C1356.46,951.773 1352.36,937.221 1345.98,922.423C1334.23,895.251 1304.33,880.452 1304.33,880.452L1314.29,890.426C1324.28,900.4 1320.43,905.769 1315.08,899.635C1309.71,893.487 1285.11,871.088 1291.7,876.873C1304.9,888.468 1317.24,923.642 1314.16,914.407C1313.4,912.099 1281.34,872.8 1281.34,872.8C1281.34,872.8 1285.93,879.7 1291.3,888.909C1291.3,888.909 1305.51,914.109 1307.69,922.747L1292.89,900.646L1292.52,900.037C1271.09,866.964 1244.98,830.843 1225.11,816.421C1217.8,811.116 1251.6,827.212 1251.6,827.212C1251.6,827.212 1249.64,821.323 1238.85,812.504C1228.07,803.671 1209.43,792.894 1209.43,792.894C1209.43,792.894 1233.94,808.574 1229.04,796.81C1224.14,785.047 1168.24,760.534 1151.57,755.631C1134.91,750.742 1120.2,749.743 1111.37,755.631C1102.55,761.52 1088.81,765.437 1074.1,767.395C1059.4,769.353 1055.48,762.492 1055.48,762.492C1055.48,790.922 1083.91,786.033 1112.35,775.242C1140.78,764.451 1162.35,780.144 1180.99,792.894C1199.62,805.643 1262.37,849.766 1322.18,980.177C1381.98,1110.59 1330.02,1251.79 1337.88,1240.03C1345.72,1228.26 1352.58,1201.78 1352.58,1206.69C1352.58,1211.58 1349.63,1238.07 1358.45,1223.36C1367.3,1208.65 1364.35,1171.39 1364.35,1181.19C1364.35,1191 1370.23,1227.28 1373.17,1221.4C1376.12,1215.51 1370.23,1163.56 1373.17,1182.18C1376.12,1200.82 1379.05,1205.71 1379.05,1205.71C1379.05,1205.71 1382.98,1170.4 1383.96,1177.28C1384.95,1184.15 1382.98,1208.65 1388.85,1204.74C1394.73,1200.81 1389.84,1167.47 1391.8,1174.33C1393.77,1181.19 1398.66,1188.06 1398.66,1188.06L1399.64,1173.35C1399.64,1173.35 1401.62,1181.19 1405.52,1178.25C1409.45,1175.31 1406.51,1145.89 1405.52,1151.77C1404.56,1157.65 1407.49,1175.29 1412.38,1156.67C1417.3,1138.05 1407.49,1098.82 1407.49,1111.56C1407.49,1124.3 1392.77,1186.09 1400.63,1135.09C1408.48,1084.09 1387.87,1053.7 1388.85,1063.51C1389.84,1073.31 1381.99,1136.06 1384.95,1092.92C1387.87,1049.79 1374.16,1045.86 1377.1,1055.66C1380.05,1065.47 1370.24,1112.53 1372.19,1092.92C1374.16,1073.31 1368.26,1036.05 1370.24,1064.49C1372.19,1092.92 1361.4,1085.09 1361.4,1082.14C1361.4,1080.12 1361.07,1070.62 1358.89,1055.08C1357.4,1045.87 1355.41,1036.76 1352.91,1027.78C1350.76,1020.62 1349.62,1010.15 1345.47,999.969C1338.27,982.33 1337.64,978.932 1337.64,978.932L1335.15,971.526Z"/>
        <path d="M826.615,1218.61C826.615,1218.61 846.913,1263.63 920.27,1266.47C993.614,1269.33 1047.46,1234.99 1047.46,1234.99C1047.46,1234.99 994.392,1275.58 912.462,1272.45C830.506,1269.33 826.615,1218.61 826.615,1218.61Z" style="fill:rgb(204,82,77);"/>
        <path d="M1118.63,1747.4C1118.63,1747.4 1235.8,1759.82 1304.73,1714.32C1304.73,1714.32 1270.26,1768.09 1154.48,1770.83C1154.46,1770.84 1092.44,1758.44 1118.63,1747.4ZM1169.64,1777.73C1169.64,1777.73 1223.4,1776.37 1239.93,1768.09C1256.47,1759.82 1244.06,1770.84 1244.06,1770.84L1224.77,1777.73L1224.77,1781.86C1224.77,1781.86 1246.82,1774.98 1252.34,1768.09C1257.86,1761.19 1255.1,1774.98 1255.1,1774.98C1255.1,1774.98 1249.59,1780.49 1235.8,1784.63C1222.02,1788.75 1234.42,1788.75 1234.42,1788.75C1234.42,1788.75 1260.61,1781.86 1264.76,1776.35C1268.88,1770.83 1271.65,1777.71 1271.65,1777.71C1271.65,1777.71 1257.86,1791.5 1241.31,1794.25C1224.77,1797.01 1249.59,1797.01 1249.59,1797.01C1249.59,1797.01 1281.3,1788.74 1285.43,1781.85C1289.57,1774.96 1292.32,1783.23 1292.32,1783.23C1292.32,1783.23 1271.67,1799.27 1258.62,1803.15C1257.47,1803.5 1256.29,1803.75 1255.1,1803.9C1242.68,1805.28 1296.44,1802.54 1303.33,1785.99C1310.22,1769.44 1312.98,1790.11 1312.98,1790.11C1312.98,1790.11 1293.68,1801.14 1278.53,1806.65C1263.36,1812.16 1285.42,1809.4 1285.42,1809.4C1285.42,1809.4 1319.87,1802.53 1319.87,1794.24C1319.87,1785.98 1328.16,1798.38 1328.16,1798.38C1328.16,1798.38 1303.33,1814.91 1293.68,1816.3C1284.03,1817.66 1296.44,1821.81 1296.44,1821.81C1296.44,1821.81 1322.64,1810.77 1328.16,1803.89C1333.65,1797 1332.28,1810.77 1332.28,1810.77C1332.28,1810.77 1317.11,1824.55 1311.61,1824.55C1306.08,1824.55 1314.37,1832.84 1314.37,1832.84C1314.37,1832.84 1346.05,1846.61 1355.72,1845.23L1348.83,1852.12C1348.83,1852.12 1268.88,1854.88 1234.42,1821.8C1199.96,1788.76 1193.08,1786.01 1169.64,1777.73ZM1377.78,1848.04C1377.78,1848.04 1399.81,1843.9 1428.78,1854.92C1457.74,1865.95 1492.18,1892.13 1505.96,1904.55C1519.73,1916.94 1530.78,1927.98 1533.55,1936.24C1536.28,1944.52 1479.77,1896.27 1463.22,1892.13C1446.69,1888.01 1397.06,1872.85 1377.78,1848.04ZM1556.98,1879.75C1543.3,1870.16 1536.62,1873.11 1525.27,1859.06C1525.27,1859.06 1553.71,1929.65 1665.86,1962.45C1673.18,1964.58 1678.94,1967.75 1685.16,1970.72C1691.39,1973.69 1704.24,1962.56 1698.93,1956.94C1693.67,1951.31 1689.29,1947.29 1678.26,1941.78C1669.62,1937.45 1606.37,1914.38 1556.98,1879.75ZM1244.06,1908.68C1244.06,1908.68 1257.85,1932.12 1322.63,1941.77C1387.43,1951.42 1388.8,1948.65 1420.51,1954.18C1452.2,1959.69 1507.35,1991.39 1518.37,2028.6C1518.37,2028.6 1427.4,1950.03 1397.05,1974.84C1397.05,1974.84 1376.38,1974.84 1391.55,1985.88C1406.7,1996.9 1453.56,2060.31 1496.3,2072.71C1496.3,2072.71 1441.47,2076.56 1384.66,2016.2C1362.6,1992.77 1366.73,1977.6 1326.76,1969.34C1265.54,1956.67 1250.96,1922.47 1244.06,1908.68ZM1456.34,2079.61C1456.34,2079.61 1478.4,2087.89 1490.81,2093.39C1503.2,2098.91 1504.58,2103.03 1510.08,2108.56C1515.61,2114.07 1517,2116.83 1510.08,2118.2C1503.2,2119.57 1481.16,2111.31 1472.87,2104.42C1464.62,2097.53 1459.1,2083.74 1456.34,2079.61Z"/>
        <path d="M1849.66,2180.53C1849.66,2180.53 1857.1,2185.69 1854.25,2191.42C1851.36,2197.14 1851.36,2200.01 1847.36,2201.16C1843.37,2202.32 1851.36,2191.42 1849.66,2180.53ZM1628.42,2318.09C1628.42,2318.09 1627.84,2326.68 1640.45,2328.41C1653.07,2330.12 1650.77,2326.1 1650.77,2326.1C1650.77,2326.1 1637.01,2328.97 1628.42,2318.09ZM1651.89,2032.21C1670.71,2054.16 1713.8,2073.68 1713.8,2073.68L1716.81,2070.03C1688.9,2062.7 1654.93,2030.37 1654.93,2030.37L1651.89,2032.21ZM1760.11,2003.76C1760.11,2003.76 1775,2022.97 1782.36,2013.62C1782.36,2013.62 1769.47,2011.61 1760.11,2003.76ZM1614.76,2058.92C1614.76,2058.92 1648.76,2083.45 1655.62,2095.54C1655.62,2095.54 1653.28,2098.52 1652.37,2097.17C1648.12,2090.96 1612.14,2059.9 1612.14,2059.9C1612.14,2059.9 1611.17,2057.29 1614.76,2058.92ZM1528.86,2158.18C1527.22,2168.65 1532.74,2171.93 1536.46,2171.58C1546.29,2170.7 1530.64,2169.36 1528.86,2158.18Z" style="fill:white;"/>
        <path d="M1599.13,2213.86C1599.13,2213.86 1613.59,2209.53 1614.31,2207.36C1616.86,2199.7 1609.26,2125.76 1581.81,2090.36C1581.81,2090.36 1569.55,2080.26 1565.92,2101.19C1565.92,2101.19 1589.02,2127.92 1594.8,2160.41C1600.59,2192.9 1599.13,2205.91 1599.13,2213.86ZM1618.43,2136.45L1618.43,2143.1C1618.43,2143.1 1706.28,2200.92 1766.02,2291.9C1766.02,2291.9 1774.3,2297.41 1767.87,2288.23C1761.44,2279.02 1713.76,2205.21 1618.43,2136.45Z" style="fill:white;"/>
        <path d="M1581.86,2137.81C1581.86,2137.81 1570.51,2112.71 1563.95,2108.53C1557.38,2104.36 1567.51,2115.71 1550.8,2115.71L1581.86,2137.81Z" style="fill:rgb(204,82,77);"/>
        <path d="M1815.47,1940.16C1815.47,1940.16 1814.91,1940.25 1814.15,1940.47C1811.86,1941.12 1807.71,1942.92 1811.03,1946.8C1815.47,1951.96 1816.93,1947.54 1816.93,1947.54C1816.93,1947.54 1810.29,1943.12 1815.47,1940.16Z" style="fill:white;"/>
    </g>
</svg>
